<?xml version="1.0" encoding="UTF-8"?>
<svg id="infotech" xmlns="http://www.w3.org/2000/svg" viewBox="0 0 850.39 283.46">
  <defs>
    <style>
      .cls-1 {
        fill: #3c3c3b;
      }

      .cls-1, .cls-2 {
        stroke-width: 0px;
      }

      .cls-2 {
        fill: #e74d4e;
      }
    </style>
  </defs>
  <path id="path272" class="cls-1" d="M146.05,116.53h6v47.9h-6v-47.9ZM195.75,164.33v-47.6h3.1l30.9,35.6v-35.6h5.9v47.6h-3l-31-35.6v35.6h-5.9ZM279.25,164.33v-47.6h37.4v5.5h-31.5v14h19.1v5.5h-19.1v22.7h-5.9v-.1ZM373.25,165.63c-7.1,0-13-2.4-17.7-7-4.6-4.7-7-10.7-7-17.9s2.3-13.2,7-17.9,10.5-7,17.6-7,13,2.4,17.7,7.1,7,10.7,7,17.9-2.3,13.2-7,17.9c-4.6,4.5-10.5,6.9-17.6,6.9M373.25,160.03c5.3,0,9.8-1.8,13.3-5.5,3.5-3.6,5.3-8.3,5.3-13.9s-1.7-10.3-5.2-13.9-7.9-5.5-13.3-5.5-9.8,1.8-13.3,5.5c-3.5,3.7-5.3,8.3-5.3,13.9s1.8,10.2,5.3,13.9c3.4,3.7,7.8,5.5,13.2,5.5M503.95,164.33v-47.6h37.4v5.5h-31.5v14h19.1v5.5h-19.1v17.2h33.5v5.5h-39.4v-.1ZM619.55,149.23l4.7,3.5c-2.2,4.1-5.2,7.3-9,9.6-3.8,2.2-8.1,3.3-12.9,3.3-7.1,0-13-2.4-17.7-7-4.6-4.7-7-10.7-7-17.9s2.3-13.2,7-17.9,10.5-7,17.6-7c4.4,0,8.4,1,12,2.9s6.6,4.7,8.8,8.2l-5,3.5c-1.5-2.8-3.7-5.1-6.5-6.7s-6-2.4-9.4-2.4c-5.3,0-9.8,1.8-13.3,5.5-3.5,3.7-5.3,8.3-5.3,13.9s1.8,10.2,5.3,13.9,7.9,5.5,13.3,5.5c3.7,0,7.1-.9,10-2.8,3.1-1.9,5.5-4.6,7.4-8.1M664.35,164.33v-47.6h6v18.8h28.1v-18.8h5.9v47.6h-5.9v-23.3h-28.1v23.3h-6Z"/>
  <path id="path274" class="cls-2" d="M460.15,130.33c-3-2.6-6.9-4.2-11.1-4.2s-8.1,1.6-11.1,4.2c-1.5,1.4-3.5,2.3-5.8,2.3-4.7,0-8.4-3.8-8.4-8.4s3.8-8.4,8.4-8.4c2.2,0,4.3.9,5.8,2.3h0c3,2.6,6.9,4.2,11.1,4.2s8.2-1.6,11.1-4.2c1.5-1.4,3.5-2.3,5.7-2.3,4.7,0,8.4,3.8,8.4,8.4s-3.8,8.4-8.4,8.4c-2.2,0-4.2-.9-5.7-2.3M457.45,149.63c0-4.7-3.8-8.4-8.4-8.4s-8.4,3.8-8.4,8.4,3.8,8.4,8.4,8.4,8.4-3.8,8.4-8.4"/>
</svg>